<?xml version="1.0" encoding="UTF-8"?>
<svg xmlns="http://www.w3.org/2000/svg" xmlns:xlink="http://www.w3.org/1999/xlink" width="48px" height="48px" viewBox="0 0 96 96" version="1.1">
    <g id="surface1">
        <path style=" stroke:none;fill-rule:nonzero;fill:rgb(11.372549%,40.392157%,81.568629%);fill-opacity:1;" d="M 22.933594 0.148438 C 22.933594 0.375 22.699219 0.425781 21.449219 0.492188 C 20.320312 0.542969 19.1875 0.734375 18.199219 1.023438 C 17.921875 1.109375 17.578125 1.171875 17.449219 1.171875 C 17.332031 1.183594 17.109375 1.246094 16.960938 1.332031 C 16.8125 1.417969 16.574219 1.492188 16.425781 1.492188 C 16.277344 1.492188 16.0625 1.566406 15.957031 1.652344 C 15.839844 1.738281 15.679688 1.8125 15.59375 1.8125 C 15.507812 1.8125 15.273438 1.886719 15.0625 1.984375 C 14.835938 2.078125 14.496094 2.230469 14.292969 2.324219 C 14.089844 2.410156 13.84375 2.527344 13.761719 2.570312 C 13.675781 2.613281 13.214844 2.859375 12.746094 3.09375 C 11.667969 3.660156 11.605469 3.691406 10.792969 4.246094 C 10.421875 4.492188 10.070312 4.691406 10.015625 4.691406 C 9.960938 4.691406 9.921875 4.734375 9.921875 4.777344 C 9.921875 4.832031 9.707031 5.023438 9.449219 5.207031 C 8.128906 6.15625 5.941406 8.339844 4.992188 9.664062 C 4.8125 9.921875 4.617188 10.132812 4.566406 10.132812 C 4.523438 10.132812 4.480469 10.175781 4.480469 10.230469 C 4.480469 10.28125 4.277344 10.632812 4.03125 11.007812 C 3.476562 11.820312 3.445312 11.882812 2.878906 12.960938 C 2.644531 13.429688 2.398438 13.886719 2.355469 13.972656 C 2.230469 14.21875 1.972656 14.828125 1.761719 15.359375 C 1.664062 15.625 1.515625 15.980469 1.429688 16.136719 C 1.34375 16.308594 1.28125 16.542969 1.28125 16.671875 C 1.28125 16.800781 1.207031 17.046875 1.121094 17.214844 C 1.035156 17.375 0.960938 17.601562 0.960938 17.707031 C 0.960938 17.8125 0.894531 18.132812 0.8125 18.410156 C 0.511719 19.414062 0.332031 20.542969 0.277344 21.695312 C 0.246094 22.335938 0.171875 22.910156 0.105469 22.976562 C -0.0429688 23.125 -0.0429688 72.886719 0.105469 73.171875 C 0.171875 73.289062 0.257812 74.046875 0.308594 74.847656 C 0.363281 75.660156 0.457031 76.457031 0.523438 76.617188 C 0.585938 76.789062 0.640625 77.054688 0.640625 77.226562 C 0.640625 77.398438 0.683594 77.558594 0.734375 77.589844 C 0.789062 77.632812 0.863281 77.910156 0.90625 78.21875 C 0.949219 78.515625 1.046875 78.878906 1.128906 79.007812 C 1.214844 79.136719 1.28125 79.359375 1.28125 79.507812 C 1.28125 79.648438 1.34375 79.902344 1.429688 80.074219 C 1.515625 80.234375 1.664062 80.585938 1.761719 80.851562 C 1.972656 81.386719 2.230469 81.996094 2.355469 82.238281 C 2.398438 82.324219 2.644531 82.785156 2.878906 83.253906 C 3.445312 84.332031 3.476562 84.394531 4.03125 85.207031 C 4.277344 85.578125 4.480469 85.929688 4.480469 85.984375 C 4.480469 86.039062 4.523438 86.078125 4.566406 86.078125 C 4.617188 86.078125 4.8125 86.292969 4.992188 86.550781 C 5.886719 87.785156 7.894531 89.8125 9.28125 90.878906 C 9.546875 91.082031 9.800781 91.308594 9.84375 91.382812 C 9.886719 91.457031 9.972656 91.519531 10.027344 91.519531 C 10.078125 91.519531 10.421875 91.722656 10.792969 91.96875 C 11.605469 92.523438 11.667969 92.554688 12.746094 93.121094 C 13.214844 93.355469 13.675781 93.601562 13.761719 93.644531 C 14.003906 93.769531 14.613281 94.027344 15.148438 94.238281 C 15.414062 94.335938 15.765625 94.484375 15.925781 94.570312 C 16.097656 94.65625 16.363281 94.71875 16.511719 94.71875 C 16.671875 94.71875 16.894531 94.792969 17.003906 94.878906 C 17.121094 94.964844 17.332031 95.039062 17.484375 95.039062 C 17.632812 95.039062 17.972656 95.105469 18.238281 95.1875 C 19.179688 95.488281 19.808594 95.59375 21.226562 95.691406 C 22.015625 95.753906 22.710938 95.839844 22.761719 95.894531 C 22.910156 96.042969 72.691406 96.03125 72.949219 95.894531 C 73.054688 95.839844 73.78125 95.742188 74.570312 95.691406 C 75.980469 95.59375 76.609375 95.488281 77.546875 95.1875 C 77.8125 95.105469 78.15625 95.039062 78.304688 95.039062 C 78.453125 95.039062 78.667969 94.964844 78.785156 94.878906 C 78.890625 94.792969 79.136719 94.71875 79.316406 94.71875 C 79.5 94.71875 79.710938 94.644531 79.785156 94.558594 C 79.863281 94.476562 80.011719 94.398438 80.117188 94.398438 C 80.222656 94.398438 80.492188 94.324219 80.714844 94.230469 C 80.9375 94.132812 81.289062 93.972656 81.492188 93.886719 C 81.695312 93.800781 81.941406 93.683594 82.027344 93.644531 C 82.113281 93.601562 82.570312 93.355469 83.039062 93.121094 C 84.117188 92.554688 84.179688 92.523438 84.992188 91.96875 C 85.367188 91.722656 85.707031 91.519531 85.761719 91.519531 C 85.8125 91.519531 85.898438 91.457031 85.941406 91.382812 C 85.984375 91.316406 86.238281 91.082031 86.507812 90.878906 C 87.785156 89.898438 89.683594 88 90.667969 86.71875 C 90.871094 86.453125 91.105469 86.199219 91.179688 86.15625 C 91.242188 86.113281 91.308594 86.027344 91.308594 85.972656 C 91.308594 85.921875 91.507812 85.578125 91.753906 85.207031 C 92.308594 84.394531 92.339844 84.332031 92.90625 83.253906 C 93.140625 82.785156 93.386719 82.324219 93.429688 82.238281 C 93.472656 82.15625 93.589844 81.910156 93.675781 81.707031 C 93.761719 81.503906 93.921875 81.152344 94.015625 80.929688 C 94.113281 80.703125 94.1875 80.4375 94.1875 80.332031 C 94.1875 80.222656 94.261719 80.074219 94.347656 80 C 94.433594 79.925781 94.507812 79.710938 94.507812 79.53125 C 94.507812 79.347656 94.582031 79.105469 94.667969 78.996094 C 94.753906 78.878906 94.828125 78.675781 94.828125 78.550781 C 94.828125 78.421875 94.890625 78.078125 94.976562 77.800781 C 95.296875 76.691406 95.382812 76.171875 95.464844 74.847656 C 95.574219 73.3125 95.625 73.066406 95.851562 73.066406 C 95.980469 73.066406 96 69.707031 96 48.148438 C 96 23.5 96 23.230469 95.785156 23.0625 C 95.617188 22.902344 95.5625 22.667969 95.476562 21.429688 C 95.371094 20.019531 95.285156 19.488281 94.976562 18.410156 C 94.890625 18.132812 94.828125 17.792969 94.828125 17.664062 C 94.828125 17.535156 94.753906 17.332031 94.667969 17.214844 C 94.582031 17.109375 94.507812 16.886719 94.507812 16.726562 C 94.507812 16.574219 94.441406 16.308594 94.355469 16.136719 C 94.273438 15.980469 94.121094 15.625 94.027344 15.359375 C 93.675781 14.453125 93.40625 13.898438 92.726562 12.640625 C 92.535156 12.289062 92.339844 11.925781 92.296875 11.839844 C 92.257812 11.753906 92.019531 11.382812 91.765625 11.019531 C 91.507812 10.644531 91.308594 10.304688 91.308594 10.238281 C 91.308594 10.1875 91.242188 10.101562 91.167969 10.058594 C 91.09375 10.015625 90.792969 9.664062 90.507812 9.28125 C 89.644531 8.148438 87.476562 6.027344 86.335938 5.207031 C 86.078125 5.023438 85.867188 4.832031 85.867188 4.777344 C 85.867188 4.734375 85.824219 4.691406 85.769531 4.691406 C 85.71875 4.691406 85.367188 4.492188 84.992188 4.246094 C 84.179688 3.691406 84.117188 3.660156 83.039062 3.09375 C 82.570312 2.859375 82.113281 2.613281 82.027344 2.570312 C 81.78125 2.441406 81.171875 2.1875 80.640625 1.972656 C 80.375 1.878906 80.019531 1.726562 79.863281 1.644531 C 79.691406 1.558594 79.433594 1.492188 79.296875 1.492188 C 79.148438 1.492188 78.921875 1.429688 78.792969 1.34375 C 78.667969 1.257812 78.304688 1.164062 78.003906 1.121094 C 77.695312 1.078125 77.417969 1.003906 77.375 0.949219 C 77.34375 0.894531 77.183594 0.851562 77.011719 0.851562 C 76.84375 0.851562 76.574219 0.800781 76.414062 0.734375 C 76.246094 0.683594 75.445312 0.585938 74.613281 0.523438 C 73.332031 0.4375 73.097656 0.394531 72.9375 0.214844 C 72.769531 0 72.542969 0 47.851562 0 C 26.625 0 22.933594 0.0195312 22.933594 0.148438 Z M 32.90625 23.285156 C 34.039062 23.507812 34.804688 24.074219 35.316406 25.066406 C 35.636719 25.675781 35.660156 27.136719 35.371094 27.753906 C 35.113281 28.296875 34.378906 29.046875 33.8125 29.34375 C 33.375 29.566406 33.183594 29.601562 31.574219 29.621094 C 29.503906 29.664062 28.90625 29.800781 27.5 30.570312 C 27.050781 30.816406 26.324219 31.691406 25.953125 32.4375 C 25.441406 33.472656 25.28125 34.378906 25.28125 36.148438 L 25.28125 37.675781 L 24.90625 38.304688 C 24.535156 38.910156 24.085938 39.316406 23.382812 39.710938 C 23.105469 39.871094 22.804688 39.914062 22.078125 39.902344 C 21.257812 39.902344 21.054688 39.863281 20.671875 39.636719 C 20.136719 39.328125 19.550781 38.730469 19.1875 38.132812 C 18.933594 37.71875 18.933594 37.664062 18.945312 35.253906 C 18.953125 33.28125 18.988281 32.703125 19.125 32.320312 C 19.222656 32.054688 19.308594 31.742188 19.308594 31.625 C 19.308594 31.148438 20.382812 28.875 20.992188 28.054688 C 21.835938 26.910156 23.253906 25.601562 24.382812 24.917969 C 25.195312 24.414062 26.582031 23.828125 27.574219 23.574219 C 29.023438 23.1875 31.660156 23.050781 32.90625 23.285156 Z M 66.644531 23.308594 C 67.359375 23.390625 68.011719 23.488281 68.074219 23.53125 C 68.136719 23.574219 68.375 23.648438 68.574219 23.691406 C 71.09375 24.203125 74.441406 26.890625 75.476562 29.226562 C 75.519531 29.3125 75.605469 29.449219 75.660156 29.523438 C 75.863281 29.78125 76.480469 31.414062 76.480469 31.691406 C 76.480469 31.851562 76.566406 32.160156 76.660156 32.382812 C 76.8125 32.734375 76.84375 33.183594 76.851562 35.253906 C 76.851562 37.664062 76.851562 37.71875 76.597656 38.132812 C 76.203125 38.785156 75.625 39.347656 75.050781 39.648438 C 74.324219 40.019531 73.003906 40.019531 72.308594 39.660156 C 71.703125 39.339844 71.050781 38.675781 70.753906 38.070312 C 70.527344 37.632812 70.507812 37.417969 70.507812 36.054688 C 70.507812 34.613281 70.367188 33.558594 70.078125 32.90625 C 69.71875 32.074219 69.578125 31.839844 69.207031 31.414062 C 68.703125 30.835938 67.476562 30.078125 66.71875 29.878906 C 66.433594 29.800781 65.34375 29.707031 64.320312 29.664062 C 62.65625 29.601562 62.398438 29.566406 61.984375 29.34375 C 61.40625 29.046875 60.769531 28.394531 60.457031 27.796875 C 60.128906 27.15625 60.128906 25.707031 60.46875 25.054688 C 61.355469 23.347656 63.019531 22.878906 66.644531 23.308594 Z M 35.5625 35.808594 C 35.9375 35.945312 36.289062 36.179688 36.703125 36.585938 C 37.726562 37.601562 37.664062 36.8125 37.652344 48.203125 C 37.652344 57.769531 37.652344 58.121094 37.449219 58.59375 C 37.207031 59.148438 36.574219 59.894531 36.148438 60.117188 C 34.625 60.894531 33.140625 60.660156 32.097656 59.457031 C 31.199219 58.421875 31.242188 58.933594 31.273438 47.839844 C 31.308594 39.722656 31.339844 38.058594 31.464844 37.707031 C 31.679688 37.109375 32.777344 36.019531 33.386719 35.820312 C 34.046875 35.59375 34.902344 35.59375 35.5625 35.808594 Z M 49.324219 36 C 50.132812 36.414062 50.625 36.992188 50.933594 37.910156 C 51.070312 38.324219 51.09375 39.667969 51.070312 48.289062 L 51.039062 58.1875 L 50.804688 58.667969 C 50.347656 59.59375 49.792969 60.085938 48.832031 60.425781 C 47.53125 60.875 45.996094 60.308594 45.207031 59.070312 C 44.671875 58.261719 44.691406 58.515625 44.714844 47.925781 L 44.746094 38.027344 L 44.980469 37.546875 C 45.429688 36.640625 45.984375 36.136719 46.910156 35.785156 C 47.542969 35.550781 48.628906 35.648438 49.324219 36 Z M 62.582031 35.902344 C 62.902344 36.0625 63.347656 36.382812 63.5625 36.617188 C 64.585938 37.75 64.535156 37.089844 64.535156 48.085938 C 64.535156 59.242188 64.585938 58.730469 63.371094 59.765625 C 62.027344 60.917969 60.339844 60.863281 59.082031 59.625 C 58.070312 58.625 58.132812 59.433594 58.132812 48.03125 C 58.132812 38.433594 58.132812 38.089844 58.335938 37.621094 C 59.050781 35.957031 61.011719 35.167969 62.582031 35.902344 Z M 23.414062 56.511719 C 24.011719 56.8125 24.523438 57.289062 24.894531 57.898438 L 25.257812 58.507812 L 25.300781 60.375 C 25.34375 62.078125 25.375 62.316406 25.652344 63.09375 C 25.8125 63.5625 26.089844 64.148438 26.25 64.394531 C 26.550781 64.820312 27.488281 65.707031 27.660156 65.707031 C 27.703125 65.707031 27.914062 65.8125 28.136719 65.953125 C 28.800781 66.355469 29.953125 66.558594 31.625 66.558594 C 33.003906 66.558594 33.164062 66.582031 33.707031 66.828125 C 34.25 67.082031 35.199219 67.957031 35.199219 68.203125 C 35.199219 68.257812 35.285156 68.394531 35.382812 68.5 C 35.519531 68.652344 35.5625 68.917969 35.5625 69.683594 C 35.5625 70.539062 35.519531 70.742188 35.285156 71.199219 C 35.007812 71.734375 34.539062 72.234375 34.015625 72.566406 C 32.617188 73.417969 28 73.097656 25.601562 71.980469 C 23.425781 70.953125 21.152344 68.820312 20.296875 66.988281 C 20.257812 66.902344 20.160156 66.761719 20.085938 66.6875 C 20.011719 66.613281 19.945312 66.476562 19.945312 66.390625 C 19.945312 66.304688 19.902344 66.15625 19.839844 66.046875 C 19.636719 65.683594 19.308594 64.734375 19.308594 64.492188 C 19.308594 64.351562 19.222656 64.054688 19.125 63.828125 C 18.976562 63.476562 18.945312 63.019531 18.945312 60.960938 C 18.933594 58.550781 18.933594 58.496094 19.1875 58.078125 C 19.753906 57.140625 20.628906 56.449219 21.441406 56.308594 C 21.972656 56.214844 23.039062 56.320312 23.414062 56.511719 Z M 75.148438 56.597656 C 75.648438 56.886719 76.234375 57.492188 76.597656 58.078125 C 76.851562 58.496094 76.851562 58.550781 76.84375 60.960938 C 76.832031 62.953125 76.800781 63.5 76.660156 63.894531 C 76.566406 64.160156 76.480469 64.492188 76.480469 64.617188 C 76.480469 64.886719 76.382812 65.109375 75.753906 66.453125 C 75.148438 67.753906 74.6875 68.40625 73.589844 69.535156 C 71.667969 71.507812 69.289062 72.628906 66.324219 72.949219 C 62.964844 73.324219 61.324219 72.820312 60.46875 71.148438 C 60.265625 70.761719 60.222656 70.507812 60.222656 69.761719 C 60.234375 68.703125 60.382812 68.296875 61.046875 67.59375 C 61.867188 66.730469 62.175781 66.632812 64.375 66.550781 C 65.429688 66.507812 66.507812 66.410156 66.773438 66.324219 C 68.171875 65.921875 69.195312 65.066406 69.835938 63.777344 C 70.335938 62.773438 70.507812 61.84375 70.507812 60.117188 C 70.507812 58.792969 70.527344 58.582031 70.753906 58.144531 C 71.03125 57.566406 71.703125 56.863281 72.222656 56.585938 C 73.023438 56.171875 74.410156 56.171875 75.148438 56.597656 Z M 75.148438 56.597656 "/>
    </g>
</svg>
