<svg xmlns="http://www.w3.org/2000/svg" width="48" height="48" viewBox="0 0 12 12"><path d="M2.867.02c0 .027-.031.035-.187.042-.14.004-.282.032-.407.067a.4.4 0 0 1-.093.02.2.2 0 0 0-.059.019.3.3 0 0 1-.066.02c-.02 0-.047.007-.059.019a.1.1 0 0 1-.047.02.2.2 0 0 0-.066.023 1 1 0 0 0-.098.04L1.72.32c-.008.008-.067.035-.125.067-.137.07-.145.074-.246.144a.5.5 0 0 1-.098.055c-.004 0-.012.008-.012.012 0 .007-.023.03-.058.054a3.1 3.1 0 0 0-.555.555c-.023.031-.047.059-.055.059-.004 0-.011.007-.011.011a.5.5 0 0 1-.055.098c-.07.102-.074.11-.145.246a1 1 0 0 1-.066.125 3 3 0 0 0-.074.176l-.04.094a.2.2 0 0 0-.019.07.2.2 0 0 1-.02.066.14.14 0 0 0-.019.063c0 .012-.008.05-.02.086a1.7 1.7 0 0 0-.066.41c-.004.082-.012.152-.023.16-.016.02-.016 6.238 0 6.274.011.015.02.113.027.21.008.102.02.204.027.223.008.02.016.055.016.074 0 .024.004.043.012.047a.2.2 0 0 1 .02.078c.003.04.019.082.027.098.011.016.02.043.02.063 0 .019.007.05.019.07.008.023.027.066.039.097.027.067.058.145.074.176a1 1 0 0 1 .066.125c.07.137.075.145.145.246.031.043.055.09.055.098 0 .004.007.008.011.008.008 0 .032.027.055.062.11.153.363.407.535.54.031.027.067.054.07.062.004.012.016.02.024.02.004 0 .047.023.094.054.101.07.109.074.246.145a1 1 0 0 1 .125.066c.031.016.11.047.176.074l.097.04c.02.011.055.019.07.019.024 0 .051.008.063.02a.13.13 0 0 0 .063.019.4.4 0 0 1 .093.02c.117.039.196.05.371.062.098.008.188.02.192.027.02.016 6.242.016 6.273 0 .016-.008.106-.02.203-.027.176-.012.254-.024.375-.063a.3.3 0 0 1 .094-.02c.02 0 .043-.007.059-.019a.12.12 0 0 1 .066-.02c.024 0 .05-.007.059-.019a.06.06 0 0 1 .043-.02.3.3 0 0 0 .074-.023l.098-.043c.023-.007.054-.023.066-.027.012-.008.066-.039.125-.066.137-.07.144-.075.246-.145a1 1 0 0 1 .094-.055c.008 0 .02-.007.023-.02.008-.007.04-.034.07-.062.16-.12.399-.359.52-.52.027-.03.055-.066.066-.07a.03.03 0 0 0 .016-.023c0-.004.024-.05.055-.094.07-.101.074-.109.144-.246.032-.058.059-.117.067-.125l.03-.066c.009-.027.032-.07.044-.098a.3.3 0 0 0 .02-.074c0-.016.007-.035.019-.043s.02-.035.02-.059.011-.054.019-.066a.1.1 0 0 0 .02-.055c0-.015.011-.062.02-.093.042-.141.05-.207.062-.372.011-.19.02-.222.046-.222.016 0 .02-.418.02-3.113 0-3.082 0-3.118-.027-3.137-.02-.02-.028-.051-.04-.203a1.5 1.5 0 0 0-.062-.38c-.008-.034-.02-.077-.02-.093a.1.1 0 0 0-.019-.055.2.2 0 0 1-.02-.062c0-.02-.007-.05-.019-.074l-.04-.094a2.4 2.4 0 0 0-.163-.344 1 1 0 0 1-.05-.098c-.009-.011-.036-.058-.067-.101a.4.4 0 0 1-.059-.098c0-.008-.008-.02-.02-.023a1 1 0 0 1-.082-.098 3.4 3.4 0 0 0-.519-.508c-.035-.023-.059-.047-.059-.054 0-.004-.007-.012-.011-.012a.5.5 0 0 1-.098-.055c-.102-.07-.11-.074-.246-.144-.059-.032-.113-.059-.125-.067-.031-.015-.11-.047-.172-.074-.035-.012-.078-.031-.098-.039a.2.2 0 0 0-.07-.02.14.14 0 0 1-.066-.019.3.3 0 0 0-.098-.027C9.71.133 9.676.125 9.672.117a.1.1 0 0 0-.047-.012.3.3 0 0 1-.074-.011 2 2 0 0 0-.223-.028c-.16-.011-.191-.015-.21-.039C9.097 0 9.065 0 5.98 0 3.328 0 2.867.004 2.867.02m1.246 2.89c.14.027.239.098.301.223.04.078.043.258.008.336a.5.5 0 0 1-.195.199c-.055.027-.079.031-.282.035-.257.004-.332.024-.507.117a.7.7 0 0 0-.196.235c-.062.129-.082.242-.082.465v.19l-.047.08a.5.5 0 0 1-.191.175c-.035.02-.07.023-.164.023-.102 0-.125-.004-.172-.035a.54.54 0 0 1-.188-.187c-.03-.051-.03-.059-.03-.36 0-.246.007-.316.023-.367a.4.4 0 0 0 .023-.086c0-.058.133-.344.211-.445.105-.145.281-.309.422-.395a1.7 1.7 0 0 1 .398-.168 2 2 0 0 1 .668-.035m4.219.004c.086.008.168.023.176.027s.039.016.062.02c.317.062.735.398.864.691l.023.04c.027.03.102.234.102.269 0 .02.011.059.023.086.02.047.023.101.023.36 0 .3 0 .308-.03.359a.53.53 0 0 1-.192.191.44.44 0 0 1-.344 0 .5.5 0 0 1-.195-.2c-.028-.054-.031-.081-.031-.25q.002-.27-.055-.394a.6.6 0 0 0-.106-.187.8.8 0 0 0-.312-.192 3 3 0 0 0-.3-.027c-.208-.008-.24-.012-.29-.039a.5.5 0 0 1-.191-.191.47.47 0 0 1 0-.344c.109-.215.32-.274.773-.219M4.445 4.477a.4.4 0 0 1 .145.097c.125.125.117.028.117 1.453 0 1.196 0 1.239-.027 1.297a.46.46 0 0 1-.16.192c-.192.097-.38.066-.508-.082-.114-.13-.106-.067-.102-1.454.004-1.015.008-1.222.024-1.265a.6.6 0 0 1 .238-.238.47.47 0 0 1 .273 0m1.72.023c.1.05.163.125.202.238.016.051.02.219.016 1.297l-.004 1.238-.027.059a.4.4 0 0 1-.247.223.396.396 0 0 1-.453-.172c-.066-.102-.066-.07-.062-1.39l.004-1.24.027-.058a.4.4 0 0 1 .242-.222.45.45 0 0 1 .301.027m1.66-.012a.5.5 0 0 1 .12.09c.13.14.121.059.121 1.434 0 1.394.008 1.328-.144 1.46-.168.141-.379.137-.535-.019-.13-.125-.121-.023-.121-1.45 0-1.198 0-1.241.027-1.3a.4.4 0 0 1 .531-.215m-4.9 2.574a.5.5 0 0 1 .188.176l.043.074.008.235c.004.215.008.242.043.34a1 1 0 0 0 .074.164c.04.05.156.164.176.164.004 0 .031.012.059.031.086.047.226.074.437.074.172 0 .192.004.262.032.066.035.183.144.183.175 0 .004.012.024.024.036.02.019.023.05.023.148 0 .105-.004.133-.035.187a.43.43 0 0 1-.16.172c-.172.106-.75.067-1.05-.074-.27-.125-.555-.394-.66-.621-.009-.012-.02-.031-.028-.04a.05.05 0 0 1-.02-.034.1.1 0 0 0-.012-.043.7.7 0 0 1-.066-.195.3.3 0 0 0-.023-.083c-.02-.046-.024-.101-.024-.359 0-.3 0-.309.031-.36.07-.12.18-.206.282-.222a.55.55 0 0 1 .246.024m6.47.012a.55.55 0 0 1 .18.188c.03.05.03.058.03.36 0 .245-.003.316-.023.366a.4.4 0 0 0-.023.09c0 .031-.012.059-.09.23-.074.16-.133.243-.27.383a1.43 1.43 0 0 1-.91.426c-.418.047-.625-.015-.73-.222a.34.34 0 0 1-.032-.176c.004-.13.02-.18.106-.27.101-.11.14-.12.414-.129.133-.008.265-.02.3-.03a.6.6 0 0 0 .383-.317c.063-.125.082-.243.082-.457 0-.168.004-.192.032-.246a.5.5 0 0 1 .183-.196.46.46 0 0 1 .368 0m0 0" style="stroke:none;fill-rule:nonzero;fill:#1d67d0;fill-opacity:1"/></svg>